# xmcd CD database file generated by Grip 3.2.0
# 
# Track frame offsets:
#       150
#       16189
#       40779
# 
# Disc length: 794 seconds
# 
# Revision: 3
# Processed by: cddbd v1.5.1PL2 Copyright (c) Steve Scherf et al.
# Submitted via: Grip 3.2.0
# 
DISCID=16031803
DTITLE=No Fair Fights - Demo
DYEAR=2006
DGENRE=Rock
TTITLE0=Show Me The Edge
TTITLE1=Fighter
TTITLE2=Shoreline
EXTD=
EXTT0=
EXTT1=
EXTT2=
PLAYORDER=
